<?xml version="1.0" encoding="UTF-8" standalone="no"?>
<svg
   svg:contrastcolor="ffffff"
   svg:template="Contrast"
   svg:presentation="2.5"
   svg:layouttype="undefined"
   svg:specialfontid="undefined"
   svg:id1="165"
   svg:id2="151"
   svg:companyname="Rider"
   svg:companytagline="Rent a Car"
   version="1.1"
   viewBox="60 201 430 70"
   id="svg88"
   sodipodi:docname="rider.svg"
   inkscape:version="1.2.1 (9c6d41e410, 2022-07-14)"
   width="430"
   height="70"
   xmlns:inkscape="http://www.inkscape.org/namespaces/inkscape"
   xmlns:sodipodi="http://sodipodi.sourceforge.net/DTD/sodipodi-0.dtd"
   xmlns="http://www.w3.org/2000/svg"
   xmlns:svg="http://www.w3.org/2000/svg">
  <defs
     id="defs92" />
  <sodipodi:namedview
     id="namedview90"
     pagecolor="#ffffff"
     bordercolor="#000000"
     borderopacity="0.25"
     inkscape:showpageshadow="2"
     inkscape:pageopacity="0.0"
     inkscape:pagecheckerboard="0"
     inkscape:deskcolor="#d1d1d1"
     showgrid="false"
     inkscape:zoom="1.5556349"
     inkscape:cx="140.45712"
     inkscape:cy="205.06097"
     inkscape:window-width="1920"
     inkscape:window-height="1017"
     inkscape:window-x="1912"
     inkscape:window-y="-8"
     inkscape:window-maximized="1"
     inkscape:current-layer="svg88" />
  <g
     fill="#3d3935"
     fill-rule="none"
     stroke="none"
     stroke-width="1"
     stroke-linecap="butt"
     stroke-linejoin="miter"
     stroke-miterlimit="10"
     stroke-dasharray="none"
     stroke-dashoffset="0"
     font-family="none"
     font-weight="none"
     font-size="none"
     text-anchor="none"
     style="mix-blend-mode:normal"
     id="g22">
    <g
       data-paper-data="{&quot;isGlobalGroup&quot;:true,&quot;bounds&quot;:{&quot;x&quot;:65,&quot;y&quot;:205.9168647012038,&quot;width&quot;:420,&quot;height&quot;:58.16627059759247}}"
       id="g20">
      <g
         data-paper-data="{&quot;isSecondaryText&quot;:true}"
         fill-rule="nonzero"
         id="element-id-39468">
        <path
           d="m 361.3327,252.27391 h -1.56758 v 3.54899 h -1.35439 v -8.77843 h 3.3358 c 0.3595,0 0.696,0.069 1.00952,0.20692 0.31352,0.13795 0.58941,0.32606 0.82768,0.56433 0.23827,0.23827 0.42638,0.51626 0.56433,0.83395 0.13795,0.3177 0.20692,0.65629 0.20692,1.01579 0,0.52671 -0.14422,1.00325 -0.43265,1.42963 -0.28843,0.42638 -0.6542,0.74408 -1.0973,0.95309 l 1.98142,3.77473 h -1.52996 z m -1.56758,-1.35439 h 1.98142 c 0.17557,0 0.3386,-0.0314 0.48908,-0.0941 0.15049,-0.0627 0.28216,-0.15049 0.39503,-0.26335 0.11287,-0.11287 0.20274,-0.24663 0.26962,-0.4013 0.0669,-0.15467 0.10032,-0.31979 0.10032,-0.49535 0,-0.35114 -0.12123,-0.64793 -0.36368,-0.89038 -0.24245,-0.24245 -0.53925,-0.36786 -0.89038,-0.37622 h -1.98142 z"
           data-paper-data="{&quot;glyphName&quot;:&quot;R&quot;,&quot;glyphIndex&quot;:0,&quot;firstGlyphOfWord&quot;:true,&quot;word&quot;:1}"
           id="element-id-15824" />
        <path
           d="m 372.13033,255.8229 v -8.77843 h 5.41755 v 1.35439 h -4.06316 v 2.19461 h 3.69948 v 1.35439 h -3.69948 v 2.52066 h 4.10078 v 1.35439 z"
           data-paper-data="{&quot;glyphName&quot;:&quot;E&quot;,&quot;glyphIndex&quot;:1,&quot;word&quot;:1}"
           id="element-id-83305" />
        <path
           d="m 391.12915,255.8229 -4.71527,-6.25777 v 6.25777 h -1.32931 v -8.77843 h 1.06595 l 4.75289,6.24523 v -6.24523 h 1.32931 v 8.77843 z"
           data-paper-data="{&quot;glyphName&quot;:&quot;N&quot;,&quot;glyphIndex&quot;:2,&quot;word&quot;:1}"
           id="element-id-61679" />
        <path
           d="m 403.17378,248.39886 v 7.42404 h -1.35439 v -7.42404 h -2.08174 v -1.35439 h 5.48025 v 1.35439 z"
           data-paper-data="{&quot;glyphName&quot;:&quot;T&quot;,&quot;glyphIndex&quot;:3,&quot;lastGlyphOfWord&quot;:true,&quot;word&quot;:1}"
           id="element-id-24503" />
        <path
           d="m 426.43163,253.30224 h -2.75894 l -0.89038,2.52066 h -1.50487 l 3.13515,-8.77843 h 1.27914 l 3.13515,8.77843 h -1.50487 z m -2.28239,-1.34185 h 1.79331 c -0.0836,-0.24245 -0.16094,-0.45982 -0.232,-0.65211 -0.0711,-0.19229 -0.14004,-0.38249 -0.20692,-0.5706 -0.0669,-0.18811 -0.13586,-0.38249 -0.20692,-0.58314 -0.0711,-0.20065 -0.15258,-0.43474 -0.24454,-0.70227 z"
           data-paper-data="{&quot;glyphName&quot;:&quot;A&quot;,&quot;glyphIndex&quot;:4,&quot;firstGlyphOfWord&quot;:true,&quot;lastGlyphOfWord&quot;:true,&quot;word&quot;:2}"
           id="element-id-71720" />
        <path
           d="m 445.28063,251.38352 c 0,-0.57687 0.0773,-1.13284 0.232,-1.6679 0.15467,-0.53507 0.39294,-1.00952 0.71482,-1.42336 0.32188,-0.41384 0.72945,-0.74408 1.22271,-0.99071 0.49326,-0.24663 1.07431,-0.36995 1.74315,-0.36995 0.71063,0 1.32722,0.14213 1.84974,0.42638 0.52253,0.28425 0.9928,0.67301 1.41082,1.16628 l -0.99071,0.87784 c -0.3595,-0.4431 -0.72109,-0.7399 -1.08476,-0.89038 -0.36368,-0.15049 -0.75035,-0.22573 -1.16001,-0.22573 -0.4431,0 -0.82768,0.0857 -1.15374,0.25708 -0.32606,0.17139 -0.59568,0.4013 -0.80887,0.68973 -0.21319,0.28843 -0.36995,0.62076 -0.47027,0.99698 -0.10032,0.37622 -0.15049,0.76498 -0.15049,1.16628 0,0.4013 0.0502,0.79006 0.15049,1.16628 0.10032,0.37622 0.25708,0.71063 0.47027,1.00325 0.21319,0.29261 0.48281,0.52671 0.80887,0.70227 0.32606,0.17557 0.71063,0.26335 1.15374,0.26335 0.40966,0 0.79842,-0.0815 1.16628,-0.24454 0.36786,-0.16303 0.72736,-0.46609 1.07849,-0.90919 l 0.99071,0.87784 c -0.40966,0.49326 -0.87784,0.8862 -1.40455,1.17882 -0.52671,0.29261 -1.14538,0.43892 -1.85601,0.43892 -0.66883,0 -1.24988,-0.1275 -1.74315,-0.38249 -0.49326,-0.25499 -0.90083,-0.5915 -1.22271,-1.00952 -0.32188,-0.41802 -0.56015,-0.89665 -0.71482,-1.4359 -0.15467,-0.53925 -0.232,-1.09312 -0.232,-1.66163 z"
           data-paper-data="{&quot;glyphName&quot;:&quot;C&quot;,&quot;glyphIndex&quot;:5,&quot;firstGlyphOfWord&quot;:true,&quot;word&quot;:3}"
           id="element-id-5274" />
        <path
           d="m 465.60061,253.30224 h -2.75894 l -0.89038,2.52066 h -1.50487 l 3.13515,-8.77843 h 1.27914 l 3.13515,8.77843 h -1.50487 z m -2.28239,-1.34185 h 1.79331 c -0.0836,-0.24245 -0.16094,-0.45982 -0.232,-0.65211 -0.0711,-0.19229 -0.14004,-0.38249 -0.20692,-0.5706 -0.0669,-0.18811 -0.13586,-0.38249 -0.20692,-0.58314 -0.0711,-0.20065 -0.15258,-0.43474 -0.24454,-0.70227 z"
           data-paper-data="{&quot;glyphName&quot;:&quot;A&quot;,&quot;glyphIndex&quot;:6,&quot;word&quot;:3}"
           id="element-id-27610" />
        <path
           d="m 478.72935,252.27391 h -1.56758 v 3.54899 h -1.35439 v -8.77843 h 3.3358 c 0.3595,0 0.696,0.069 1.00952,0.20692 0.31352,0.13795 0.58941,0.32606 0.82768,0.56433 0.23827,0.23827 0.42638,0.51626 0.56433,0.83395 0.13795,0.3177 0.20692,0.65629 0.20692,1.01579 0,0.52671 -0.14422,1.00325 -0.43265,1.42963 -0.28843,0.42638 -0.6542,0.74408 -1.0973,0.95309 l 1.98142,3.77473 h -1.52996 z m -1.56758,-1.35439 h 1.98142 c 0.17557,0 0.3386,-0.0314 0.48908,-0.0941 0.15049,-0.0627 0.28216,-0.15049 0.39503,-0.26335 0.11287,-0.11287 0.20274,-0.24663 0.26962,-0.4013 0.0669,-0.15467 0.10032,-0.31979 0.10032,-0.49535 0,-0.35114 -0.12123,-0.64793 -0.36368,-0.89038 -0.24245,-0.24245 -0.53925,-0.36786 -0.89038,-0.37622 h -1.98142 z"
           data-paper-data="{&quot;glyphName&quot;:&quot;R&quot;,&quot;glyphIndex&quot;:7,&quot;lastGlyphOfWord&quot;:true,&quot;word&quot;:3}"
           id="element-id-32697" />
      </g>
      <g
         data-paper-data="{&quot;isPrimaryText&quot;:true}"
         fill-rule="nonzero"
         id="element-id-19360">
        <path
           d="m 358.41073,214.12694 h 13.18638 c 1.9904,0 3.71541,0.20733 5.17503,0.622 1.45962,0.41467 2.67045,1.01455 3.63248,1.79965 0.96203,0.7851 1.67802,1.7416 2.14797,2.86949 0.46995,1.12789 0.70493,2.40506 0.70493,3.83151 0,0.96203 -0.11611,1.87706 -0.34832,2.74509 -0.23221,0.86803 -0.58883,1.66696 -1.06984,2.39677 -0.48101,0.72981 -1.08643,1.37946 -1.81624,1.94893 -0.72981,0.56947 -1.58679,1.04219 -2.57093,1.41816 l 5.63946,8.29332 h -6.43562 l -4.87647,-7.36447 h -0.14928 l -7.96159,-0.0166 v 7.38106 h -5.25797 z m 13.31908,13.99912 c 0.9952,0 1.866,-0.11611 2.6124,-0.34832 0.7464,-0.23221 1.37116,-0.55842 1.87429,-0.97861 0.50313,-0.42019 0.87909,-0.93162 1.12789,-1.53426 0.2488,-0.60265 0.3732,-1.27441 0.3732,-2.01528 0,-1.44857 -0.4976,-2.56817 -1.4928,-3.3588 -0.9952,-0.79063 -2.49353,-1.18595 -4.49498,-1.18595 h -8.06111 v 9.42121 z"
           data-paper-data="{&quot;glyphName&quot;:&quot;R&quot;,&quot;glyphIndex&quot;:0,&quot;firstGlyphOfWord&quot;:true,&quot;word&quot;:1}"
           id="element-id-41877" />
        <path
           d="m 388.81405,214.12694 h 5.29114 v 25.92492 h -5.29114 z"
           data-paper-data="{&quot;glyphName&quot;:&quot;I&quot;,&quot;glyphIndex&quot;:1,&quot;word&quot;:1}"
           id="element-id-52774" />
        <path
           d="m 400.80619,214.12694 h 9.50415 c 2.7755,0 5.18609,0.29856 7.23178,0.89568 2.04569,0.59712 3.74029,1.45133 5.08381,2.56264 1.34352,1.11131 2.34425,2.46035 3.00218,4.04714 0.65794,1.58679 0.98691,3.36985 0.98691,5.34919 0,1.87982 -0.3262,3.61865 -0.97861,5.2165 -0.65241,1.59785 -1.64761,2.98007 -2.9856,4.14666 -1.33799,1.16659 -3.02983,2.07886 -5.07551,2.7368 -2.04569,0.65794 -4.45628,0.98691 -7.23178,0.98691 l -9.53732,-0.0166 z m 10.79791,21.38018 c 1.5702,0 2.94689,-0.2018 4.13007,-0.60541 1.18318,-0.40361 2.17009,-0.97585 2.96072,-1.71672 0.79063,-0.74087 1.38498,-1.63655 1.78306,-2.68704 0.39808,-1.05049 0.59712,-2.22261 0.59712,-3.51637 0,-1.27164 -0.19904,-2.41889 -0.59712,-3.44173 -0.39808,-1.02284 -0.99243,-1.89088 -1.78306,-2.6041 -0.79063,-0.71323 -1.77754,-1.26335 -2.96072,-1.65037 -1.18318,-0.38702 -2.55987,-0.58053 -4.13007,-0.58053 h -5.53994 v 16.80227 z"
           data-paper-data="{&quot;glyphName&quot;:&quot;D&quot;,&quot;glyphIndex&quot;:2,&quot;word&quot;:1}"
           id="element-id-90009" />
        <path
           d="m 431.88957,214.12694 h 22.07682 v 4.61109 h -16.81886 v 5.17503 h 14.89481 v 4.32911 h -14.89481 v 7.21519 h 17.16718 v 4.5945 h -22.42514 z"
           data-paper-data="{&quot;glyphName&quot;:&quot;E&quot;,&quot;glyphIndex&quot;:3,&quot;word&quot;:1}"
           id="element-id-12213" />
        <path
           d="m 460.15321,214.12694 h 13.18638 c 1.9904,0 3.71541,0.20733 5.17503,0.622 1.45962,0.41467 2.67045,1.01455 3.63248,1.79965 0.96203,0.7851 1.67802,1.7416 2.14797,2.86949 0.46995,1.12789 0.70493,2.40506 0.70493,3.83151 0,0.96203 -0.11611,1.87706 -0.34832,2.74509 -0.23221,0.86803 -0.58883,1.66696 -1.06984,2.39677 -0.48101,0.72981 -1.08643,1.37946 -1.81624,1.94893 -0.72981,0.56947 -1.58679,1.04219 -2.57093,1.41816 l 5.63946,8.29332 h -6.43562 l -4.87647,-7.36447 h -0.14928 l -7.96159,-0.0166 v 7.38106 h -5.25797 z m 13.31907,13.99912 c 0.9952,0 1.866,-0.11611 2.6124,-0.34832 0.7464,-0.23221 1.37116,-0.55842 1.87429,-0.97861 0.50313,-0.42019 0.87909,-0.93162 1.12789,-1.53426 0.2488,-0.60265 0.3732,-1.27441 0.3732,-2.01528 0,-1.44857 -0.4976,-2.56817 -1.4928,-3.3588 -0.9952,-0.79063 -2.49353,-1.18595 -4.49498,-1.18595 h -8.06111 v 9.42121 z"
           data-paper-data="{&quot;glyphName&quot;:&quot;R&quot;,&quot;glyphIndex&quot;:4,&quot;lastGlyphOfWord&quot;:true,&quot;word&quot;:1}"
           id="element-id-72100" />
      </g>
      <g
         data-paper-data="{&quot;fillRule&quot;:&quot;evenodd&quot;,&quot;fillRuleOriginal&quot;:&quot;evenodd&quot;,&quot;isIcon&quot;:true,&quot;iconStyle&quot;:&quot;standalone&quot;,&quot;selectedEffects&quot;:{&quot;container&quot;:&quot;&quot;,&quot;transformation&quot;:&quot;&quot;,&quot;pattern&quot;:&quot;&quot;},&quot;bounds&quot;:{&quot;x&quot;:65,&quot;y&quot;:205.9168647012038,&quot;width&quot;:242.3532934858846,&quot;height&quot;:58.16627059759247},&quot;iconType&quot;:&quot;icon&quot;,&quot;rawIconId&quot;:&quot;6f1d5f35-cc72-4d22-aceb-8ea2ae655c0a&quot;,&quot;isSvgStockIcon&quot;:true,&quot;combineTerms&quot;:&quot;car,sportscar&quot;,&quot;combineTermsExtended&quot;:{&quot;icon&quot;:[&quot;car&quot;,&quot;sportscar&quot;]},&quot;isDetailed&quot;:false,&quot;suitableAsStandaloneIcon&quot;:true}"
         fill-rule="evenodd"
         id="element-id-31127">
        <path
           d="m 74.56784,233.72957 c -0.69488,1.05122 -2.70823,4.8641 -2.70823,5.14918 0,0.39198 0.4098,-0.0356 0.99777,-1.08686 1.22939,-2.03116 3.67036,-5.18482 5.14918,-6.66365 4.56121,-4.50776 9.58568,-6.69929 17.92416,-7.82177 2.33406,-0.32071 4.32959,-0.39198 10.35182,-0.39198 4.09796,0 8.90863,0.12472 10.67254,0.26726 1.74609,0.14254 4.09796,0.32071 5.22046,0.37416 1.12248,0.0534 2.26279,0.16035 2.56569,0.2138 0.30289,0.0534 2.45878,0.28508 4.81065,0.5167 4.08015,0.39198 5.70152,0.57015 16.2137,1.81736 2.5835,0.30289 6.32512,0.69488 8.32066,0.85523 2.01335,0.16035 4.0267,0.35634 4.48995,0.4098 1.56792,0.2138 14.46761,0.74833 17.92416,0.74833 10.79725,0 25.17577,-1.22939 36.16901,-3.11802 0.99777,-0.17818 2.6904,-0.44543 3.75944,-0.6236 1.06903,-0.16035 2.08461,-0.35634 2.24498,-0.4098 0.16035,-0.0534 1.10467,-0.24944 2.10244,-0.42761 1.83517,-0.32071 8.40974,-1.65701 12.16918,-2.45878 3.86635,-0.85523 9.79948,-1.97771 14.82395,-2.86858 4.89974,-0.87304 10.04892,-1.24721 15.46538,-1.14031 7.55452,0.14254 11.77721,0.83742 18.56557,3.01112 0.53452,0.17818 1.62137,0.60579 2.44096,0.97994 2.6904,1.22939 1.81736,0.37416 -1.38975,-1.31847 -8.03557,-4.27614 -16.33842,-5.63025 -29.30937,-4.7572 -2.92203,0.2138 -6.05786,0.46325 -6.9309,0.57015 -0.89087,0.12472 -2.76168,0.35634 -4.16924,0.5167 -2.35188,0.28508 -6.52111,0.89087 -11.52776,1.69264 -2.13807,0.35634 -7.18035,1.24721 -14.50325,2.5835 -2.83294,0.5167 -6.91309,1.19376 -11.42086,1.90645 -1.10467,0.17818 -3.02893,0.42761 -4.25832,0.55234 -1.24721,0.12472 -2.38751,0.26726 -2.56569,0.32071 -0.17818,0.0356 -2.92203,0.32071 -6.11131,0.6236 -6.32512,0.57015 -20.04441,1.14031 -20.3473,0.81959 -0.4098,-0.4098 4.56121,-3.24274 7.6436,-4.34741 2.90422,-1.03339 1.30066,-1.08686 -2.49441,-0.0713 -2.77949,0.74833 -6.68147,2.54787 -8.51665,3.95542 -0.4098,0.32071 -0.90868,0.39198 -2.51223,0.39198 -1.08686,0 -1.99554,-0.0891 -1.99554,-0.19599 0,-0.44543 3.18928,-2.5835 5.68371,-3.83071 4.48995,-2.24498 9.03334,-3.65253 15.26938,-4.72158 1.38975,-0.23163 2.74385,-0.42761 3.04674,-0.42761 0.28508,0 0.53452,-0.0891 0.53452,-0.2138 0,-0.26726 -1.3363,-0.26726 -4.91757,0.0178 -7.62578,0.6236 -15.46538,3.33182 -21.7014,7.5367 -2.26279,1.53228 -2.4766,1.62137 -3.52782,1.60355 -0.6236,0 -1.35411,-0.0713 -1.63919,-0.16035 -0.49888,-0.14254 -0.46325,-0.19599 0.85523,-1.30066 2.85077,-2.38751 7.26944,-4.91757 11.18923,-6.41421 2.42315,-0.92649 2.77949,-1.03339 5.22046,-1.78172 6.07569,-1.83517 14.61015,-3.15366 22.37847,-3.47436 2.70823,-0.0891 3.59908,-0.19599 3.31401,-0.35634 -0.67705,-0.37416 -11.2605,-0.28508 -14.91304,0.14254 -11.68812,1.3363 -21.73704,4.84629 -29.86171,10.42309 -1.17593,0.80178 -2.38751,1.65701 -2.70823,1.90645 -0.53452,0.42761 -0.64142,0.44543 -3.4031,0.19599 -2.49441,-0.2138 -3.47436,-0.44543 -3.15366,-0.7305 0.0534,-0.0534 0.99777,-0.74833 2.12025,-1.56792 9.37187,-6.89528 21.50543,-10.97543 36.89953,-12.47207 3.75944,-0.37416 13.98654,-0.48107 18.88629,-0.2138 4.45431,0.23163 12.61461,1.05122 14.93085,1.49665 0.58797,0.1069 1.60355,0.26726 2.24498,0.33853 0.65924,0.0891 1.76391,0.26726 2.45878,0.42761 0.71269,0.16035 1.81736,0.33853 2.45878,0.4098 l 1.17593,0.12472 -1.17593,-0.4098 c -1.67482,-0.57015 -5.43426,-1.46101 -10.13801,-2.38751 -4.66812,-0.92649 -5.66588,-1.06903 -12.16918,-1.88862 -2.67259,-0.33853 -8.97989,-0.65924 -12.88188,-0.65924 -12.00882,0 -22.09339,1.71046 -32.56993,5.50553 -6.46766,2.35188 -12.84624,5.89751 -17.99542,10.0133 -0.65924,0.53452 -1.30066,0.87304 -1.49665,0.81959 -0.17818,-0.0713 -1.35411,-0.2138 -2.5835,-0.33853 -1.24721,-0.12472 -3.26056,-0.35634 -4.48995,-0.5167 -4.70375,-0.6236 -7.66142,-0.97994 -9.92421,-1.17593 -1.30066,-0.1069 -3.31401,-0.30289 -4.48995,-0.42761 -3.97325,-0.4098 -10.60126,-0.60579 -13.96872,-0.42761 -7.55452,0.42761 -13.63019,2.20934 -19.13573,5.63025 -3.29619,2.04899 -7.03782,5.64807 -9.08679,8.73045 z m 210.68899,0.24944 c 0.39198,0.94432 0.78396,1.83517 0.87304,1.97771 0.17818,0.30289 5.5768,0.4098 5.73716,0.12472 0.0534,-0.0891 -0.44543,-1.06903 -1.10467,-2.19152 -1.4432,-2.44096 -4.82848,-5.96877 -7.26944,-7.57233 -2.54787,-1.67482 -6.5033,-3.51 -8.32066,-3.84852 -0.6236,-0.12472 -0.44543,0.0356 1.17593,1.10467 4.34741,2.85077 7.14472,6.11131 8.90863,10.40527 z m -67.26012,13.07786 c 0.46325,0.97994 1.28284,2.45878 1.81736,3.27837 0.97994,1.46101 1.58573,1.94209 1.28284,0.97994 -0.0891,-0.24944 -0.44543,-1.53228 -0.80178,-2.81513 -0.6236,-2.22715 -0.65924,-2.53005 -0.65924,-6.5033 0,-3.67036 0.0534,-4.36523 0.48107,-5.96877 1.01558,-3.8129 2.51223,-6.98437 4.57904,-9.67477 0.33853,-0.44543 0.57015,-0.85523 0.49888,-0.92649 -0.0713,-0.0713 -0.76614,0.0178 -1.56792,0.2138 -1.83517,0.42761 -4.6503,0.90868 -8.49883,1.4432 -5.77279,0.80178 -7.62578,1.01558 -15.35847,1.69264 -1.42538,0.12472 -3.01112,0.26726 -3.52782,0.32071 -0.99777,0.0891 -9.83512,0.4098 -17.28273,0.64142 -2.28061,0.0713 -4.18705,0.16035 -4.2405,0.2138 -0.0535,0.0356 0.19599,0.0891 0.53452,0.0891 0.33853,0 2.10244,0.0891 3.9198,0.19599 14.16471,0.83742 30.39623,0.65924 37.30932,-0.44543 0.74833,-0.1069 1.38975,-0.17818 1.4432,-0.12472 0.0891,0.0891 -0.74833,2.29843 -0.96213,2.53005 -0.0891,0.0891 -2.20934,0.30289 -4.73939,0.49888 -5.66588,0.4098 -8.55228,0.67705 -8.65919,0.80178 -0.12472,0.12472 3.52782,0.32071 8.74828,0.49888 l 4.2405,0.14254 -0.12472,1.06903 c -0.0713,0.60579 -0.2138,1.15812 -0.30289,1.24721 -0.0891,0.0891 -1.90645,0.33853 -4.00889,0.53452 -2.10244,0.19599 -3.90197,0.4098 -3.99106,0.49888 -0.0891,0.0713 1.63919,0.30289 3.83071,0.5167 2.33406,0.23163 4.08015,0.48107 4.16924,0.6236 0.0891,0.14254 0.14254,0.64142 0.1069,1.10467 l -0.0534,0.85523 -1.92426,0.16035 c -2.54787,0.23163 -2.61914,0.26726 -0.74833,0.58797 2.93984,0.49888 2.81513,0.44543 3.11802,1.60355 0.14254,0.58797 0.2138,1.12248 0.16035,1.22939 -0.0535,0.0891 -0.76614,0.17818 -1.56792,0.17818 -1.81736,0 -2.13807,0.35634 -0.48107,0.53452 2.4766,0.26726 2.33406,0.19599 3.26056,2.1737 z m 27.04658,-18.5834 c 3.4031,0.0178 3.65253,0.0356 5.38081,0.65924 l 1.83517,0.64142 h 8.21375 c 4.84629,0.0178 7.85741,-0.0535 7.35852,-0.16035 -0.80178,-0.16035 -6.80619,-0.96213 -8.74828,-1.15812 -0.99777,-0.1069 -5.4699,-0.65924 -7.75051,-0.96213 -2.22715,-0.30289 -5.00664,-0.26726 -6.98437,0.0891 -1.53228,0.28508 -2.88639,0.65924 -2.88639,0.81959 0,0.0356 1.62137,0.0713 3.58127,0.0713 z m -143.26852,0.46326 c 0.80178,0.24944 1.62137,0.57015 1.81736,0.67705 0.35634,0.19599 17.08674,0.32071 16.87294,0.14254 -0.1069,-0.1069 -7.32289,-1.08686 -10.44091,-1.40756 -1.24721,-0.12472 -2.53005,-0.28508 -2.88639,-0.33853 -4.08015,-0.71269 -8.2672,-0.87304 -10.86853,-0.42761 -3.70599,0.6236 -3.58127,0.87304 0.48107,0.87304 3.11802,0 3.75944,0.0713 5.02447,0.48107 z m 44.65004,9.31841 c 0.17818,1.17593 0.39198,2.28061 0.44543,2.45878 0.42761,1.26502 1.03339,-3.38528 0.87304,-6.57456 -0.0713,-1.31847 -0.0534,-2.40533 0.0356,-2.40533 0.0891,0 2.40533,0.19599 5.167,0.42761 7.9465,0.67705 32.9441,1.37193 31.87506,0.89087 -0.24944,-0.1069 -1.81736,-0.26726 -3.52782,-0.33853 -1.69264,-0.0713 -3.90197,-0.23163 -4.89974,-0.33853 -0.99777,-0.1069 -3.1002,-0.30289 -4.68594,-0.42761 -7.05563,-0.57015 -18.22705,-1.94209 -25.90628,-3.20711 -1.38975,-0.23163 -2.5835,-0.37416 -2.63695,-0.32071 -0.0534,0.0534 0.16035,0.55234 0.48107,1.12248 1.22939,2.22715 2.24498,5.38081 2.77949,8.71264 z m -38.8416,-6.48547 1.92426,1.67482 h 2.45878 c 3.58127,0.0178 14.32507,-0.24944 14.23598,-0.33853 -0.0534,-0.0356 -2.13807,-0.2138 -4.6503,-0.39198 -2.51223,-0.17818 -6.30731,-0.46325 -8.40974,-0.64142 -2.12025,-0.16035 -4.2405,-0.30289 -4.70375,-0.30289 z m 148.45334,0.0534 c -0.0891,0.0713 0.23163,0.46325 0.69488,0.87304 l 0.83742,0.71269 h 5.86187 c 6.43203,0 6.9309,-0.17818 1.92426,-0.69488 -1.69264,-0.17818 -4.47213,-0.48107 -6.14695,-0.67705 -1.67482,-0.17818 -3.1002,-0.28508 -3.17147,-0.2138 z M 84.86621,242.47783 c -0.5167,2.54787 -0.14254,6.0935 0.85523,8.0534 0.24944,0.46325 0.48107,0.85523 0.53452,0.85523 0.05345,0 0.01781,-0.16035 -0.08909,-0.37416 -0.30289,-0.58797 -0.67705,-3.04674 -0.67705,-4.47213 0,-4.68594 2.42315,-8.76609 6.59239,-11.10014 4.47213,-2.51223 9.95985,-2.03116 14.05781,1.21157 1.38975,1.08686 1.4432,0.83742 0.1069,-0.5167 -4.63249,-4.70375 -12.38299,-4.93538 -17.40745,-0.5167 -1.94209,1.69264 -3.45655,4.31178 -3.97325,6.85964 z m 148.4177,6.66367 c 0.23163,0.58797 0.48107,1.26502 0.57015,1.47883 0.0891,0.2138 0.2138,0.33853 0.26726,0.30289 0.0713,-0.0713 0,-0.49888 -0.16035,-0.94432 -0.17818,-0.5167 -0.28508,-1.78172 -0.28508,-3.38528 0,-2.6904 0.32071,-4.06234 1.40756,-6.00441 2.86858,-5.18482 8.64136,-7.75051 14.28943,-6.36076 2.03116,0.49888 4.82848,1.99554 5.68371,3.04674 0.14254,0.17818 0.30289,0.28508 0.35634,0.23163 0.23163,-0.23163 -1.53228,-1.97771 -2.93984,-2.92203 -2.26279,-1.51447 -4.15142,-2.0668 -7.07344,-2.04899 -2.5835,0 -3.59908,0.2138 -5.59462,1.19376 -3.38528,1.65701 -6.2004,5.25609 -6.89528,8.85518 -0.35634,1.83517 -0.16035,5.20263 0.37416,6.55675 z m -2.74385,7.69705 c 3.29619,3.99106 7.30507,6.37858 11.88411,7.14472 1.28284,0.2138 7.89305,0.0713 16.97984,-0.35634 3.68817,-0.16035 9.58568,-0.4098 13.11349,-0.53452 3.52782,-0.12472 7.98212,-0.32071 9.92421,-0.42761 1.92426,-0.1069 4.31178,-0.19599 5.27391,-0.19599 1.03339,0 1.76391,-0.0891 1.76391,-0.2138 0,-0.12472 -0.2138,-0.2138 -0.48107,-0.2138 -0.85523,-0.0178 -10.47655,-0.64142 -11.47431,-0.74833 -0.5167,-0.0713 -3.31401,-0.26726 -6.18259,-0.44543 -2.86858,-0.17818 -6.12914,-0.4098 -7.25162,-0.5167 -1.10467,-0.1069 -3.31401,-0.26726 -4.89974,-0.33853 l -2.88639,-0.14254 -1.24721,0.76614 c -2.81513,1.71046 -7.00218,2.54787 -10.54781,2.10244 -3.86635,-0.49888 -6.84183,-1.72827 -9.67477,-4.00889 -1.26502,-1.01558 -2.31624,-2.15589 -2.31624,-2.51223 0,-0.0713 1.26502,-0.14254 2.81513,-0.16035 l 2.83294,-0.0356 -3.1002,-0.17818 c -3.58127,-0.2138 -3.45655,-0.14254 -4.77503,-2.85077 -1.42538,-2.95767 -1.71046,-4.31178 -1.71046,-7.99995 0.0178,-2.86858 0.0713,-3.51 0.5167,-4.89974 0.58797,-1.88862 1.4432,-3.67036 2.60132,-5.43426 l 0.83742,-1.28284 -1.14031,1.19376 c -1.46101,1.53228 -2.99329,4.27614 -3.70599,6.69929 -0.49888,1.65701 -0.57015,2.33406 -0.58797,4.81065 0,3.26056 0.39198,5.09573 1.69264,7.76832 0.39198,0.81959 0.71269,1.56792 0.71269,1.67482 0,0.17818 -3.38528,0.16035 -21.22035,-0.17818 -3.04674,-0.0534 -11.06451,-0.16035 -17.81724,-0.2138 -6.75274,-0.0535 -14.96649,-0.16035 -18.24486,-0.2138 -13.61238,-0.24944 -32.21359,-0.5167 -45.32708,-0.65924 l -13.96872,-0.14254 -1.01558,1.60355 c -0.55234,0.89087 -1.01558,1.67482 -1.01558,1.74609 0,0.0713 4.20487,0.0713 9.33624,0.0178 5.13137,-0.0713 17.4609,-0.2138 27.3673,-0.33853 9.9064,-0.12472 21.09562,-0.26726 24.85506,-0.32071 3.75944,-0.0534 18.24486,-0.2138 32.19577,-0.33853 l 25.37176,-0.24944 z M 89.0889,262.25499 c 1.72827,0.85523 3.49218,1.4432 5.27391,1.72827 1.28284,0.2138 6.12914,0.0713 11.2605,-0.30289 2.04899,-0.14254 4.79284,-0.33853 6.07569,-0.4098 2.20934,-0.12472 5.45208,-0.35634 15.25157,-1.06903 2.28061,-0.17818 6.02222,-0.42761 8.32066,-0.55234 5.55898,-0.32071 6.41421,-0.5167 2.97548,-0.69488 -4.61467,-0.23163 -19.08228,-0.78396 -24.56998,-0.92649 l -5.25609,-0.14254 -1.78172,0.87304 c -5.70152,2.77949 -10.8507,2.88639 -16.28497,0.33853 -2.04899,-0.96213 -5.30954,-3.47436 -4.97102,-3.83071 0.07126,-0.0891 2.22715,-0.23163 4.79284,-0.33853 12.56116,-0.5167 12.88188,-0.64142 2.61914,-1.03339 -3.58127,-0.14254 -7.1269,-0.32071 -7.89305,-0.39198 l -1.38975,-0.14254 -0.76614,-1.28284 c -3.47436,-5.86187 -3.24274,-13.46984 0.53452,-18.9041 0.96213,-1.37193 1.10467,-1.97771 0.24944,-1.03339 -0.92649,0.99777 -2.0668,2.70823 -2.72604,4.0267 -2.45878,4.97102 -2.4766,11.02888 -0.05345,15.87517 0.28508,0.57015 0.46325,1.08686 0.39198,1.15812 -0.08909,0.0891 -12.0801,-0.26726 -15.48319,-0.46325 -0.5167,-0.0356 -0.53452,0.0178 -0.58797,1.5501 L 65,257.87195 l 3.04674,-0.14254 c 1.67482,-0.0713 4.97102,-0.17818 7.32289,-0.24944 2.35188,-0.0713 4.91757,-0.17818 5.70152,-0.23163 l 1.42538,-0.12472 1.56792,1.53228 c 1.83517,1.79955 2.81513,2.49441 5.02447,3.59908 z m 21.84394,-27.42075 c -0.0534,0.0534 0.12472,0.44543 0.39198,0.87304 l 0.48107,0.76614 2.7973,-0.12472 c 1.53228,-0.0713 4.47213,-0.17818 6.52111,-0.26726 4.4365,-0.17818 3.99106,-0.35634 -1.79955,-0.69488 -2.24498,-0.12472 -5.02447,-0.33853 -6.18259,-0.44543 -1.15812,-0.1069 -2.15589,-0.16035 -2.20934,-0.1069 z m 148.06136,0 c -0.0534,0.0713 0.16035,0.46325 0.49888,0.89087 l 0.58797,0.78396 3.33182,-0.14254 c 1.83517,-0.0891 4.32959,-0.14254 5.55898,-0.14254 1.22939,0 2.13807,-0.0891 2.03116,-0.17818 -0.1069,-0.1069 -2.03116,-0.35634 -4.25832,-0.55234 -2.24498,-0.19599 -4.8641,-0.44543 -5.86187,-0.55234 -0.97994,-0.1069 -1.83517,-0.16035 -1.88862,-0.1069 z m -146.17272,3.15365 c 0,0.2138 0.60579,1.5501 0.78396,1.72827 0.0891,0.1069 1.42538,0.12472 2.95767,0.0534 1.53228,-0.0713 5.29172,-0.23163 8.39192,-0.32071 3.08238,-0.1069 5.66588,-0.23163 5.71933,-0.28508 0.16035,-0.16035 -1.71046,-0.33853 -6.21822,-0.57015 -4.84629,-0.26726 -6.59239,-0.37416 -9.55004,-0.57015 -1.14031,-0.0891 -2.08461,-0.0891 -2.08461,-0.0356 z m 148.15044,0 c -0.0534,0.0356 0.1069,0.48107 0.35634,0.97994 l 0.46325,0.90868 5.68371,-0.14254 c 3.11802,-0.0713 5.75497,-0.19599 5.84406,-0.28508 0.0713,-0.0713 -1.21157,-0.30289 -2.88639,-0.49888 -5.4699,-0.65924 -9.37187,-1.05122 -9.46096,-0.96213 z m 1.38975,3.97325 c 0,0.24944 0.0891,0.67705 0.2138,0.97994 0.0463,0.11777 0.0588,0.21345 0.1069,0.28668 0.20133,0.31394 1.04409,0.21577 8.0534,-0.30449 2.31624,-0.16035 4.31178,-0.30289 4.45431,-0.30289 0.14254,0 0.2138,-0.0534 0.16035,-0.1069 -0.0891,-0.0891 -4.8641,-0.46325 -10.90415,-0.85523 -1.97771,-0.12472 -2.08461,-0.1069 -2.08461,0.30289 z m -148.097,0.24944 c 0.0534,0.28508 0.17818,0.71269 0.28508,0.90868 0.19599,0.35634 0.65924,0.37416 7.07344,0.26726 10.06675,-0.17818 17.2471,-0.35634 17.15801,-0.44543 -0.0535,-0.0356 -2.13807,-0.17818 -4.6503,-0.30289 -2.51223,-0.12472 -7.01999,-0.35634 -10.0133,-0.53452 -2.99329,-0.17818 -6.44985,-0.33853 -7.67923,-0.37416 l -2.24498,-0.0534 z m -19.81278,2.60131 c -0.65924,1.24721 -0.1069,3.02893 1.15812,3.74162 0.64142,0.35634 1.5501,0.32071 2.42315,-0.0713 2.42315,-1.15812 1.49665,-4.98883 -1.22939,-4.98883 -0.85523,0 -1.97771,0.6236 -2.35188,1.31847 z m 148.07918,0.17818 c -0.53452,1.30066 0.14254,3.1002 1.38975,3.6169 1.24721,0.53452 2.77949,-0.0713 3.36746,-1.3363 0.48107,-0.97994 0.46325,-1.60355 -0.0534,-2.44096 -1.10467,-1.79955 -3.9198,-1.71046 -4.70375,0.16035 z m 20.36512,2.24498 10.56563,0.1069 c 16.85511,0.16035 35.20688,0.16035 33.81714,0 -0.69488,-0.0891 -3.8129,-0.28508 -6.9309,-0.4098 -3.1002,-0.12472 -7.19817,-0.32071 -9.06898,-0.44543 -1.88862,-0.12472 -6.68147,-0.35634 -10.67254,-0.53452 -3.99106,-0.17818 -8.74828,-0.4098 -10.56563,-0.5167 -1.81736,-0.1069 -4.16924,-0.23163 -5.22046,-0.24944 l -1.92426,-0.0356 z m -148.06136,0 10.56563,0.1069 c 17.05111,0.16035 34.97526,0.16035 33.69242,-0.0178 -0.64142,-0.0891 -3.75944,-0.26726 -6.9309,-0.4098 -3.17147,-0.12472 -7.30507,-0.33853 -9.17588,-0.44543 -1.88862,-0.12472 -6.64584,-0.35634 -10.56563,-0.53452 -3.93761,-0.17818 -8.64136,-0.4098 -10.45872,-0.5167 -1.81736,-0.12472 -4.18705,-0.2138 -5.29172,-0.2138 h -1.97771 z m -0.80178,4.15142 4.98883,0.0534 c 12.01506,0.14093 69.66973,0.0903 69.67008,-0.0832 0,-0.002 -0.007,-0.004 -0.0224,-0.006 -0.81959,-0.0891 -5.29172,-0.26726 -9.92421,-0.39198 -4.6503,-0.12472 -10.69035,-0.32071 -13.45203,-0.44543 -2.76168,-0.1069 -9.71041,-0.35634 -15.46538,-0.53452 -5.75497,-0.17818 -12.75715,-0.4098 -15.57228,-0.5167 -2.81513,-0.1069 -7.2338,-0.24944 -9.81731,-0.32071 -2.5835,-0.0534 -5.80842,-0.16035 -7.18035,-0.23163 -1.63152,-0.0827 -2.31143,-0.1233 -2.65032,0.19688 -0.24588,0.23233 -0.31216,0.65478 -0.43207,1.38885 z m 149.57583,-2.47659 c -0.89087,-0.12472 -1.01558,0.0356 -1.31847,1.67482 l -0.12472,0.80178 h 6.05786 c 8.28502,0 18.52995,-0.24944 17.74598,-0.44543 -0.65924,-0.16035 -3.4031,-0.42761 -9.92421,-0.94432 -2.04899,-0.17818 -4.6503,-0.39198 -5.75497,-0.5167 -1.12248,-0.12472 -2.88639,-0.26726 -3.95542,-0.33853 -1.06903,-0.0534 -2.28061,-0.17818 -2.72604,-0.23163 z M 65.03561,251.3152 c 0,0.46325 0.03564,0.89087 0.08909,0.94432 0.05345,0.0534 1.3363,-0.0178 2.83294,-0.16035 1.49665,-0.14254 3.56345,-0.32071 4.59685,-0.4098 1.03339,-0.0891 1.87081,-0.2138 1.87081,-0.30289 0,-0.0891 -1.60355,-0.26726 -3.56345,-0.4098 -1.97771,-0.14254 -4.08015,-0.30289 -4.70375,-0.37416 l -1.12248,-0.12472 z m 194.992,4.36523 c -0.53452,0.85523 -0.99777,1.63919 -1.03339,1.72827 -0.0534,0.0891 3.31401,0.12472 7.46543,0.0356 4.15142,-0.0713 13.96872,-0.2138 21.82613,-0.33853 7.85741,-0.12472 14.34289,-0.24944 14.37852,-0.30289 0.17818,-0.16035 -1.05122,-0.28508 -6.68147,-0.6236 -3.17147,-0.19599 -7.78613,-0.48107 -10.24492,-0.64142 -2.45878,-0.16035 -5.63025,-0.35634 -7.03782,-0.42761 -1.40756,-0.0713 -4.52558,-0.26726 -6.9309,-0.42761 -2.40533,-0.16035 -5.80842,-0.35634 -7.57233,-0.42761 l -3.20711,-0.12472 z"
           data-paper-data="{&quot;isPathIcon&quot;:true}"
           id="element-id-32959" />
      </g>
      <path
         d="m 327.77627,264.08314 v -58.16627 h 0.97044 v 58.16627 z"
         data-paper-data="{&quot;isShapeTextSeparator&quot;:true}"
         fill-rule="nonzero"
         id="element-id-77566" />
    </g>
  </g>
  <rect
     data-element-id="element-id-31127"
     stroke-width="2"
     fill="transparent"
     class="invisible-element-box grouping-element"
     x="65"
     y="206"
     width="242"
     height="58"
     data-element-name="isIcon"
     id="rect52" />
  <rect
     data-element-id="element-id-32959"
     stroke-width="2"
     fill="transparent"
     class="invisible-element-box individual-element"
     x="65"
     y="206"
     width="242"
     height="58"
     id="rect54" />
  <rect
     data-element-id="element-id-19360"
     stroke-width="2"
     fill="transparent"
     class="invisible-element-box grouping-element"
     x="358"
     y="214"
     width="127"
     height="26"
     data-element-name="isPrimaryText"
     id="rect56" />
  <rect
     data-element-id="element-id-39468"
     stroke-width="2"
     fill="transparent"
     class="invisible-element-box grouping-element"
     x="358"
     y="247"
     width="124"
     height="9"
     data-element-name="isSecondaryText"
     id="rect58" />
  <rect
     data-element-id="element-id-90009"
     stroke-width="2"
     fill="transparent"
     class="invisible-element-box individual-element"
     x="401"
     y="214"
     width="26"
     height="26"
     id="rect60" />
  <rect
     data-element-id="element-id-41877"
     stroke-width="2"
     fill="transparent"
     class="invisible-element-box individual-element"
     x="358"
     y="214"
     width="25"
     height="26"
     id="rect62" />
  <rect
     data-element-id="element-id-72100"
     stroke-width="2"
     fill="transparent"
     class="invisible-element-box individual-element"
     x="460"
     y="214"
     width="25"
     height="26"
     id="rect64" />
  <rect
     data-element-id="element-id-12213"
     stroke-width="2"
     fill="transparent"
     class="invisible-element-box individual-element"
     x="432"
     y="214"
     width="22"
     height="26"
     id="rect66" />
  <rect
     data-element-id="element-id-52774"
     stroke-width="2"
     fill="transparent"
     class="invisible-element-box individual-element"
     x="389"
     y="214"
     width="5"
     height="26"
     id="rect68" />
  <rect
     data-element-id="element-id-71720"
     stroke-width="2"
     fill="transparent"
     class="invisible-element-box individual-element"
     x="421"
     y="247"
     width="8"
     height="9"
     id="rect70" />
  <rect
     data-element-id="element-id-27610"
     stroke-width="2"
     fill="transparent"
     class="invisible-element-box individual-element"
     x="460"
     y="247"
     width="8"
     height="9"
     id="rect72" />
  <rect
     data-element-id="element-id-61679"
     stroke-width="2"
     fill="transparent"
     class="invisible-element-box individual-element"
     x="385"
     y="247"
     width="7"
     height="9"
     id="rect74" />
  <rect
     data-element-id="element-id-5274"
     stroke-width="2"
     fill="transparent"
     class="invisible-element-box individual-element"
     x="445"
     y="247"
     width="7"
     height="9"
     id="rect76" />
  <rect
     data-element-id="element-id-77566"
     stroke-width="2"
     fill="transparent"
     class="invisible-element-box individual-element"
     x="328"
     y="206"
     width="1"
     height="58"
     id="rect78" />
  <rect
     data-element-id="element-id-15824"
     stroke-width="2"
     fill="transparent"
     class="invisible-element-box individual-element"
     x="358"
     y="247"
     width="6"
     height="9"
     id="rect80" />
  <rect
     data-element-id="element-id-24503"
     stroke-width="2"
     fill="transparent"
     class="invisible-element-box individual-element"
     x="400"
     y="247"
     width="6"
     height="9"
     id="rect82" />
  <rect
     data-element-id="element-id-32697"
     stroke-width="2"
     fill="transparent"
     class="invisible-element-box individual-element"
     x="476"
     y="247"
     width="6"
     height="9"
     id="rect84" />
  <rect
     data-element-id="element-id-83305"
     stroke-width="2"
     fill="transparent"
     class="invisible-element-box individual-element"
     x="372"
     y="247"
     width="5"
     height="9"
     id="rect86" />
</svg>
